<svg width="24" height="24" viewBox="0 0 24 24" fill="none" xmlns="http://www.w3.org/2000/svg">
<path d="M7.67326 2C8.05986 2 8.37326 2.31324 8.37326 2.69965L8.373 4.009H15.89L15.8901 2.70814C15.8901 2.32174 16.2035 2.00849 16.5901 2.00849C16.9767 2.00849 17.2901 2.32174 17.2901 2.70814L17.29 4.009L20 4.00902C21.1046 4.00902 22 4.904 22 6.00802V20.001C22 21.105 21.1046 22 20 22H4C2.89543 22 2 21.105 2 20.001V6.00802C2 4.904 2.89543 4.00902 4 4.00902L6.973 4.009L6.97326 2.69965C6.97326 2.31324 7.28666 2 7.67326 2ZM3.4 9.742V20.001C3.4 20.3322 3.66863 20.6007 4 20.6007H20C20.3314 20.6007 20.6 20.3322 20.6 20.001V9.756L3.4 9.742ZM8.66667 16.6186V18.2848H7V16.6186H8.66667ZM12.8333 16.6186V18.2848H11.1667V16.6186H12.8333ZM17 16.6186V18.2848H15.3333V16.6186H17ZM8.66667 12.6418V14.3079H7V12.6418H8.66667ZM12.8333 12.6418V14.3079H11.1667V12.6418H12.8333ZM17 12.6418V14.3079H15.3333V12.6418H17ZM6.973 5.408L4 5.40832C3.66863 5.40832 3.4 5.67681 3.4 6.00802V8.343L20.6 8.357V6.00802C20.6 5.67681 20.3314 5.40832 20 5.40832L17.29 5.408L17.2901 6.33697C17.2901 6.72338 16.9767 7.03662 16.5901 7.03662C16.2035 7.03662 15.8901 6.72338 15.8901 6.33697L15.89 5.408H8.373L8.37326 6.32848C8.37326 6.71489 8.05986 7.02813 7.67326 7.02813C7.28666 7.02813 6.97326 6.71489 6.97326 6.32848L6.973 5.408Z" fill="#4F4F4F"/>
</svg>
