<svg width="24" height="24" viewBox="0 0 24 24" fill="none" xmlns="http://www.w3.org/2000/svg">
<path d="M12 22C11.7249 22 11.4758 21.8889 11.295 21.7092L12 21.5L12.3828 21.9241C12.2649 21.973 12.1356 22 12 22Z" fill="#828282"/>
<path d="M12.3828 21.9241L12 21.5L11.2925 21.7067L7.29289 17.7071C6.90237 17.3166 6.90237 16.6834 7.29289 16.2929C7.68342 15.9024 8.31658 15.9024 8.70711 16.2929L11 18.5858L11 10C11 9.44772 11.4477 9 12 9C12.5523 9 13 9.44772 13 10L13 18.5858L15.2929 16.2929C15.6834 15.9024 16.3166 15.9024 16.7071 16.2929C17.0976 16.6834 17.0976 17.3166 16.7071 17.7071L12.7071 21.7071C12.6112 21.803 12.5007 21.8753 12.3828 21.9241Z" fill="#828282"/>
<path d="M19 12C19 12.5523 19.4477 13 20 13C20.5523 13 21 12.5523 21 12L21 6C21 4.34315 19.6569 3 18 3L6 3C4.34314 3 3 4.34315 3 6L3 12C3 12.5523 3.44771 13 4 13C4.55228 13 5 12.5523 5 12L5 6C5 5.44772 5.44771 5 6 5L18 5C18.5523 5 19 5.44772 19 6L19 12Z" fill="#828282"/>
</svg>
