<svg width="24" height="24" viewBox="0 0 24 24" fill="none" xmlns="http://www.w3.org/2000/svg">
<path d="M6.1287 5.40806C6.36789 5.40806 6.57704 5.19869 6.57704 4.95972L6.57725 1.07334C6.57725 0.834152 6.36788 0.625 6.12891 0.625H5.50101C5.26183 0.625 5.05267 0.834365 5.05267 1.07334V4.98951C5.05267 5.22869 5.26204 5.43784 5.50101 5.43784L6.1287 5.43805L6.1287 5.40806Z" fill="black"/>
<path d="M18.3857 5.40806C18.6249 5.40806 18.834 5.19869 18.834 4.95972V1.07334C18.834 0.834152 18.6247 0.625 18.3857 0.625H17.7578C17.5186 0.625 17.3094 0.834365 17.3094 1.07334V4.98951C17.3094 5.22869 17.5188 5.43784 17.7578 5.43784L18.3857 5.43805V5.40806Z" fill="black"/>
<path d="M17.3394 16.7676H19.7311V19.1592H17.3394V16.7676Z" fill="black"/>
<path d="M10.7625 16.7676H13.1542V19.1592H10.7625V16.7676Z" fill="black"/>
<path d="M21.4349 2.71729H20.0299V4.9594C20.0299 5.8563 19.3123 6.60367 18.3856 6.60367H17.7577C16.8608 6.60367 16.1134 5.88614 16.1134 4.9594V2.71729H7.77277V4.9594C7.77277 5.8563 7.05524 6.60367 6.1285 6.60367H5.5006C4.6037 6.60367 3.85633 5.88614 3.85633 4.9594L3.85654 2.71729H2.45148C1.10627 2.71729 0 3.82334 0 5.19856V20.8933C0 22.2686 1.10606 23.3746 2.48127 23.3746H21.4645C22.8398 23.3746 23.9458 22.2686 23.9458 20.8933V5.19856C23.9157 3.82329 22.8097 2.71729 21.4347 2.71729H21.4349ZM7.77298 19.578C7.77298 20.0263 7.41431 20.3552 6.99577 20.3552H3.76713C3.31879 20.3552 2.98992 19.9965 2.98992 19.578L2.98971 16.3493C2.98971 15.901 3.34838 15.5721 3.76692 15.5721H6.96577C7.41411 15.5721 7.74299 15.9308 7.74299 16.3493L7.74319 19.578H7.77298ZM7.77298 12.7022C7.77298 13.1505 7.41431 13.4794 6.99577 13.4794L3.76713 13.4796C3.31879 13.4796 2.98992 13.1209 2.98992 12.7024L2.98971 9.47351C2.98971 9.02518 3.34838 8.6963 3.76692 8.6963H6.96577C7.41411 8.6963 7.74299 9.05498 7.74299 9.47351L7.74319 12.7022L7.77298 12.7022ZM14.3498 19.578C14.3498 20.0263 13.9912 20.3552 13.5726 20.3552H10.344C9.89566 20.3552 9.56678 19.9965 9.56678 19.578V16.3493C9.56678 15.901 9.92546 15.5721 10.344 15.5721H13.5428C13.9912 15.5721 14.3201 15.9308 14.3201 16.3493V19.578H14.3498ZM14.3498 12.7022C14.3498 13.1505 13.9912 13.4794 13.5726 13.4794L10.344 13.4796C9.89566 13.4796 9.56678 13.1209 9.56678 12.7024V9.47351C9.56678 9.02518 9.92546 8.6963 10.344 8.6963H13.5428C13.9912 8.6963 14.3201 9.05498 14.3201 9.47351V12.7022L14.3498 12.7022ZM20.9267 19.578C20.9267 20.0263 20.568 20.3552 20.1495 20.3552H16.9209C16.4725 20.3552 16.1436 19.9965 16.1436 19.578V16.3493C16.1436 15.901 16.5023 15.5721 16.9209 15.5721H20.1197C20.5681 15.5721 20.8969 15.9308 20.8969 16.3493V19.578H20.9267ZM20.9267 12.7022C20.9267 13.1505 20.568 13.4794 20.1495 13.4794L16.9209 13.4796C16.4725 13.4796 16.1436 13.1209 16.1436 12.7024V9.47351C16.1436 9.02518 16.5023 8.6963 16.9209 8.6963H20.1197C20.5681 8.6963 20.8969 9.05498 20.8969 9.47351V12.7022L20.9267 12.7022Z" fill="black"/>
<path d="M4.18561 16.7676H6.57725V19.1592H4.18561V16.7676Z" fill="black"/>
<path d="M17.3394 9.89209H19.7311V12.2837H17.3394V9.89209Z" fill="black"/>
</svg>
